<svg xmlns="http://www.w3.org/2000/svg" xmlns:xlink="http://www.w3.org/1999/xlink" width="500" zoomAndPan="magnify" viewBox="0 0 375 374.999991" height="500" preserveAspectRatio="xMidYMid meet" version="1.0"><defs><clipPath id="7954efd93b"><path d="M 157 49.875 L 337.5 49.875 L 337.5 325.125 L 157 325.125 Z M 157 49.875 " clip-rule="nonzero"/></clipPath><clipPath id="f0af151b26"><path d="M 37.5 114 L 262 114 L 262 325.125 L 37.5 325.125 Z M 37.5 114 " clip-rule="nonzero"/></clipPath></defs><g clip-path="url(#7954efd93b)"><path fill="#233dff" d="M 257.660156 266.867188 L 157.601562 263.78125 L 337.480469 325.097656 L 187.484375 49.9375 L 163.765625 93.445312 L 187.484375 137.25 L 257.660156 266.867188 " fill-opacity="1" fill-rule="nonzero"/></g><g clip-path="url(#f0af151b26)"><path fill="#f4f6fc" d="M 106.40625 285.976562 L 154.035156 198.609375 L 175.808594 158.664062 L 152.082031 114.878906 L 37.488281 325.097656 L 261.691406 325.097656 L 106.40625 285.976562 " fill-opacity="1" fill-rule="nonzero"/></g><path fill="#5cb6f9" d="M 175.808594 158.664062 L 154.035156 198.609375 L 182.339844 250.886719 L 226.523438 252.246094 L 175.808594 158.664062 " fill-opacity="1" fill-rule="nonzero"/></svg>